<?xml version="1.0" encoding="utf-8" ?>
<svg xmlns="http://www.w3.org/2000/svg" viewBox="0 0 23.72 12">
    <g data-name="Шар 2">
        <path d="M23.48 5.36A15 15 0 0 0 12.64 0 6 6 0 0 0 12 0h-.56l-2 .21a12.59 12.59 0 0 0-1.95.5 19.58 19.58 0 0 0-1.88.72 12.71 12.71 0 0 0-1.78 1c-.44.31-1.3 1-1.72 1.31a12.64 12.64 0 0 0-1.6 1.6L0 6a4.73 4.73 0 0 0 1.2 1.58A16 16 0 0 1 2.63 6l.07-.07 1 3.55a15.07 15.07 0 0 0 2.43 1.34L4.38 4.49a13 13 0 0 1 1.77-1.08l2.19 8.18a14.56 14.56 0 0 0 2.17.39L8 2.63a13 13 0 0 1 1.93-.45L12.57 12l2-.24a15 15 0 0 0 8.9-5.11 1 1 0 0 0 .01-1.29zM16 6a4 4 0 0 1-2 3.45l-.41-1.52A2.47 2.47 0 0 0 14.5 6a2.49 2.49 0 0 0-2.12-2.46L12 2a4 4 0 0 1 4 4zm1.27 2.87a6 6 0 0 0 0-5.74A13 13 0 0 1 21.37 6a12.94 12.94 0 0 1-4.1 2.87z" fill="#2d5ca6" data-name="Layer 10" />
    </g>
</svg>
